<svg width="566" height="529" viewBox="0 0 566 529" fill="none" xmlns="http://www.w3.org/2000/svg">
<g filter="url(#filter0_d_92_702)">
<g opacity="0.15">
<path d="M89.1709 205.212H134.083M134.083 205.212V225.674M134.083 205.212H151.28M134.083 225.674H89.1709M134.083 225.674H178.995M96.1559 246.234H134.083V266.697H119.551M111.627 225.674H156.538V246.136H111.627V225.674Z" stroke="#474747" stroke-width="6" stroke-miterlimit="10" stroke-linecap="round" stroke-linejoin="round"/>
<path d="M328.582 279.294H373.494M373.494 279.294V299.756M373.494 279.294H390.691M373.494 299.756H328.582M373.494 299.756H418.406M134.083 246.234H178.995V266.697H134.083V246.234Z" stroke="#474747" stroke-width="6" stroke-miterlimit="10" stroke-linecap="round" stroke-linejoin="round"/>
<path d="M335.567 320.316H373.494M373.494 320.316V340.779M373.494 320.316H410.888M373.494 340.779H358.962M373.494 340.779H402.436M351.038 299.756H395.95V320.218H351.038V299.756ZM182.138 128.528H251.837V181.334H182.138V128.528Z" stroke="#474747" stroke-width="6" stroke-miterlimit="10" stroke-linecap="round" stroke-linejoin="round"/>
<path d="M191.751 169.105L204.522 151.824L217.729 167.121" stroke="#474747" stroke-width="6" stroke-miterlimit="10" stroke-linecap="round" stroke-linejoin="round"/>
<path d="M212.882 161.507L230.7 145.343L243.344 169.105" stroke="#474747" stroke-width="6" stroke-miterlimit="10" stroke-linecap="round" stroke-linejoin="round"/>
<path d="M208.228 156.12C209.109 153.625 211.624 151.824 214.589 151.824C217.032 151.824 219.169 153.047 220.339 154.872M433.003 216.993H333.873C330.213 216.993 327.246 214.22 327.246 210.8C327.246 207.379 330.213 204.606 333.873 204.606H433.003C436.662 204.606 439.629 207.379 439.629 210.8C439.629 214.221 436.662 216.993 433.003 216.993Z" stroke="#474747" stroke-width="6" stroke-miterlimit="10" stroke-linecap="round" stroke-linejoin="round"/>
<path d="M396.59 129.29L404.015 117.809C405.444 115.6 408.658 115.126 410.745 116.817C412.831 118.509 412.785 121.549 410.647 123.184L396.738 133.823M398.928 204.607H369.902L363.864 169.99H404.965L398.928 204.607ZM358.38 159.938H410.626V169.99H358.38V159.938ZM391.138 159.938H380.419C377.503 150.343 374.94 140.289 375.255 130.484C375.63 125.785 381.062 121.804 385.779 121.806C390.495 121.804 395.927 125.785 396.303 130.484C396.617 140.29 394.054 150.343 391.138 159.938Z" stroke="#474747" stroke-width="6" stroke-miterlimit="10" stroke-linecap="round" stroke-linejoin="round"/>
<path d="M404.123 117.686L400.586 107.427C400.042 105.85 401.149 104.196 402.904 103.963C403.316 103.908 403.736 103.939 404.135 104.051C404.533 104.164 404.901 104.357 405.211 104.617C405.521 104.876 405.767 105.196 405.932 105.553C406.096 105.911 406.175 106.298 406.163 106.687L405.9 114.978" stroke="#474747" stroke-width="6" stroke-miterlimit="10" stroke-linecap="round" stroke-linejoin="round"/>
</g>
<path d="M380.361 199.229L305.68 342.409L231.734 308.718L306.416 165.538L380.361 199.229Z" fill="#77BA85"/>
<path d="M380.361 199.229L305.68 342.409L231.734 308.718L306.416 165.538L380.361 199.229Z" stroke="#474747" stroke-width="6" stroke-miterlimit="10" stroke-linecap="round" stroke-linejoin="round"/>
<path d="M351.072 195.678L327.435 184.907C322.946 193.51 311.846 197.084 302.64 192.889L244.353 304.627L301.326 330.589L359.614 218.852C350.408 214.657 346.585 204.282 351.072 195.678Z" fill="#F6F9EA"/>
<path d="M351.072 195.678L327.435 184.907C322.946 193.51 311.846 197.084 302.64 192.889L244.353 304.627L301.326 330.589L359.614 218.852C350.408 214.657 346.585 204.282 351.072 195.678Z" stroke="#474747" stroke-width="6" stroke-miterlimit="10" stroke-linecap="round" stroke-linejoin="round"/>
<path d="M310.785 177.31L367.761 203.266L301.36 330.587L244.384 304.631L310.785 177.31Z" stroke="#474747" stroke-width="6" stroke-miterlimit="10" stroke-linecap="round" stroke-linejoin="round"/>
<path d="M311.696 260.939C322.422 260.939 331.117 252.813 331.117 242.788C331.117 232.763 322.422 224.636 311.696 224.636C300.97 224.636 292.275 232.763 292.275 242.788C292.275 252.813 300.97 260.939 311.696 260.939Z" fill="#77BA85"/>
<path d="M311.696 260.939C322.422 260.939 331.117 252.813 331.117 242.788C331.117 232.763 322.422 224.636 311.696 224.636C300.97 224.636 292.275 232.763 292.275 242.788C292.275 252.813 300.97 260.939 311.696 260.939Z" stroke="#474747" stroke-width="6" stroke-miterlimit="10" stroke-linecap="round" stroke-linejoin="round"/>
<path d="M435.95 248.318L304.154 349.308L251.997 289.851L383.793 188.86L435.95 248.318Z" fill="#97CD78"/>
<path d="M435.95 248.318L304.154 349.308L251.997 289.851L383.793 188.86L435.95 248.318Z" stroke="#474747" stroke-width="6" stroke-miterlimit="10" stroke-linecap="round" stroke-linejoin="round"/>
<path d="M410.888 233.684L394.215 214.677C386.295 220.746 374.611 219.665 368.118 212.263L265.264 291.079L305.451 336.89L408.305 258.075C401.812 250.672 402.969 239.753 410.888 233.684Z" fill="#F6F9EA"/>
<path d="M410.888 233.684L394.215 214.677C386.295 220.746 374.611 219.665 368.118 212.263L265.264 291.079L305.451 336.89L408.305 258.075C401.812 250.672 402.969 239.753 410.888 233.684Z" stroke="#474747" stroke-width="6" stroke-miterlimit="10" stroke-linecap="round" stroke-linejoin="round"/>
<path d="M382.463 201.271L422.65 247.083L305.455 336.886L265.268 291.074L382.463 201.271Z" stroke="#474747" stroke-width="6" stroke-miterlimit="10" stroke-linecap="round" stroke-linejoin="round"/>
<path d="M354.073 279.293C364.799 279.293 373.494 271.166 373.494 261.141C373.494 251.116 364.799 242.99 354.073 242.99C343.347 242.99 334.651 251.116 334.651 261.141C334.651 271.166 343.347 279.293 354.073 279.293Z" fill="#97CD78"/>
<path d="M354.073 279.293C364.799 279.293 373.494 271.166 373.494 261.141C373.494 251.116 364.799 242.99 354.073 242.99C343.347 242.99 334.651 251.116 334.651 261.141C334.651 271.166 343.347 279.293 354.073 279.293Z" stroke="#474747" stroke-width="6" stroke-miterlimit="10" stroke-linecap="round" stroke-linejoin="round"/>
<path opacity="0.32" d="M356.249 242.136C356.249 232.73 352.471 224.137 346.267 217.598L251.979 289.849L304.136 349.307L356.249 309.373V242.136Z" fill="#474747" stroke="#474747" stroke-width="6" stroke-miterlimit="10" stroke-linecap="round" stroke-linejoin="round"/>
<path opacity="0.15" d="M95.6538 396.075H470.346" stroke="#474747" stroke-width="6" stroke-miterlimit="10" stroke-linecap="round" stroke-linejoin="round"/>
<path d="M316.63 396.074H197.77C179.014 396.074 163.81 381.864 163.81 364.335V239.49C163.81 221.961 179.014 207.75 197.77 207.75H316.63C335.385 207.75 350.59 221.961 350.59 239.49V364.335C350.59 381.864 335.385 396.074 316.63 396.074Z" fill="#F58870"/>
<path d="M316.63 396.074H197.77C179.014 396.074 163.81 381.864 163.81 364.335V239.49C163.81 221.961 179.014 207.75 197.77 207.75H316.63C335.385 207.75 350.59 221.961 350.59 239.49V364.335C350.59 381.864 335.385 396.074 316.63 396.074Z" fill="#F58870"/>
<path d="M316.63 389.663H197.77C179.014 389.663 163.81 375.453 163.81 357.923V364.335C163.81 381.864 179.014 396.075 197.77 396.075H316.63C335.385 396.075 350.59 381.864 350.59 364.335V357.923C350.59 375.453 335.385 389.663 316.63 389.663Z" fill="#DD7868"/>
<path d="M316.63 207.75H197.77C179.014 207.75 163.81 220.807 163.81 236.914V243.719C163.81 227.612 179.014 214.556 197.77 214.556H316.63C335.385 214.556 350.59 227.612 350.59 243.719V236.914C350.59 220.808 335.385 207.75 316.63 207.75Z" fill="#FFA399"/>
<path opacity="0.3" d="M277.009 285.236H246.445C240.819 285.236 236.257 280.973 236.257 275.714V217.272C236.257 212.014 240.819 207.75 246.445 207.75H287.197V275.714C287.197 280.973 282.636 285.236 277.009 285.236Z" fill="#474747" stroke="#474747" stroke-width="6" stroke-miterlimit="10" stroke-linecap="round" stroke-linejoin="round"/>
<path d="M316.63 396.074H197.77C179.014 396.074 163.81 381.864 163.81 364.334V239.49C163.81 221.961 179.014 207.75 197.77 207.75H316.63C335.385 207.75 350.59 221.961 350.59 239.49V364.334C350.59 381.864 335.385 396.074 316.63 396.074Z" stroke="#474747" stroke-width="6" stroke-miterlimit="10" stroke-linecap="round" stroke-linejoin="round"/>
<g opacity="0.46">
<path d="M176.261 363.527V240.298C176.261 229.196 185.891 220.196 197.769 220.196H316.629C328.508 220.196 338.137 229.196 338.137 240.298V363.527C338.137 374.629 328.508 383.629 316.629 383.629H197.769C185.891 383.629 176.261 374.629 176.261 363.527Z" stroke="#474747" stroke-width="4" stroke-linecap="round" stroke-linejoin="round" stroke-dasharray="13.96 9.97"/>
</g>
<path d="M272.481 279.417H241.917C236.291 279.417 231.729 275.154 231.729 269.895V205.357C231.729 200.099 236.291 195.835 241.917 195.835H272.481C278.108 195.835 282.669 200.099 282.669 205.357V269.895C282.669 275.154 278.108 279.417 272.481 279.417Z" fill="#F79765"/>
<path d="M272.481 275.009H241.917C236.291 275.009 231.729 270.746 231.729 265.487V269.895C231.729 275.154 236.291 279.417 241.917 279.417H272.481C278.108 279.417 282.669 275.154 282.669 269.895V265.487C282.669 270.746 278.108 275.009 272.481 275.009Z" fill="#E27444"/>
<path d="M272.481 195.835H241.917C236.291 195.835 231.729 200.099 231.729 205.357V208.955C231.729 203.696 236.291 199.433 241.917 199.433H272.481C278.108 199.433 282.669 203.696 282.669 208.955V205.357C282.669 200.099 278.108 195.835 272.481 195.835Z" fill="#FFB797"/>
<path d="M272.481 279.417H241.917C236.291 279.417 231.729 275.154 231.729 269.895V205.357C231.729 200.099 236.291 195.835 241.917 195.835H272.481C278.108 195.835 282.669 200.099 282.669 205.357V269.895C282.669 275.154 278.108 279.417 272.481 279.417Z" stroke="#474747" stroke-width="6" stroke-miterlimit="10" stroke-linecap="round" stroke-linejoin="round"/>
<path opacity="0.3" d="M258.897 265.823C266.165 265.823 272.057 260.316 272.057 253.523C272.057 246.731 266.165 241.224 258.897 241.224C251.63 241.224 245.738 246.731 245.738 253.523C245.738 260.316 251.63 265.823 258.897 265.823Z" fill="#474747" stroke="#474747" stroke-width="6" stroke-miterlimit="10" stroke-linecap="round" stroke-linejoin="round"/>
<g opacity="0.46">
<path d="M241.917 273.069C240.045 273.069 238.521 271.646 238.521 269.895V205.357C238.521 203.607 240.045 202.183 241.917 202.183H272.481C274.354 202.183 275.877 203.607 275.877 205.357V269.895C275.877 271.646 274.354 273.069 272.481 273.069H241.917Z" stroke="#474747" stroke-width="4" stroke-linecap="round" stroke-linejoin="round" stroke-dasharray="9.84 11.81"/>
</g>
<path d="M257.2 262.648C264.467 262.648 270.359 257.142 270.359 250.349C270.359 243.556 264.467 238.05 257.2 238.05C249.932 238.05 244.04 243.556 244.04 250.349C244.04 257.142 249.932 262.648 257.2 262.648Z" fill="#8F6D5D"/>
<path d="M257.2 262.648C264.467 262.648 270.359 257.142 270.359 250.349C270.359 243.556 264.467 238.05 257.2 238.05C249.932 238.05 244.04 243.556 244.04 250.349C244.04 257.142 249.932 262.648 257.2 262.648Z" stroke="#474747" stroke-width="6" stroke-miterlimit="10" stroke-linecap="round" stroke-linejoin="round"/>
<g opacity="0.6">
<path d="M262.749 244.043C263.227 246.044 260.67 247.327 256.902 248.053C253.128 248.75 249.738 248.868 249.274 247.173C248.795 245.509 251.352 242.42 255.12 241.417C258.894 240.386 262.284 242.074 262.749 244.043Z" fill="#FFFCEE"/>
</g>
<path d="M446.183 396.075H406.549C405.458 396.075 404.412 395.67 403.641 394.949C402.869 394.228 402.436 393.25 402.436 392.23V389.662C402.436 388.642 402.869 387.664 403.641 386.943C404.412 386.222 405.458 385.817 406.549 385.817H446.183C447.274 385.817 448.32 386.222 449.092 386.943C449.863 387.664 450.296 388.642 450.296 389.662V392.23C450.297 392.735 450.19 393.235 449.983 393.702C449.777 394.168 449.474 394.592 449.092 394.949C448.71 395.306 448.256 395.589 447.757 395.782C447.258 395.975 446.723 396.075 446.183 396.075Z" fill="#FDB740"/>
<path opacity="0.88" d="M446.183 386.875H406.549C406.009 386.875 405.474 386.974 404.975 387.168C404.476 387.361 404.023 387.644 403.641 388.001C403.259 388.358 402.956 388.782 402.749 389.248C402.542 389.715 402.436 390.214 402.436 390.719V392.218C402.436 391.198 402.869 390.221 403.641 389.5C404.412 388.779 405.458 388.374 406.549 388.374H446.183C447.274 388.374 448.32 388.779 449.092 389.5C449.863 390.221 450.296 391.198 450.296 392.218V390.719C450.297 390.214 450.19 389.714 449.983 389.248C449.777 388.782 449.474 388.358 449.092 388.001C448.71 387.644 448.256 387.361 447.757 387.167C447.258 386.974 446.723 386.875 446.183 386.875Z" fill="#FFF3C0"/>
<path d="M446.183 394.917H406.549C405.458 394.917 404.412 394.512 403.641 393.791C402.869 393.07 402.436 392.092 402.436 391.072V389.574C402.436 390.593 402.869 391.571 403.641 392.292C404.412 393.013 405.458 393.418 406.549 393.418H446.183C447.274 393.418 448.32 393.013 449.092 392.292C449.863 391.571 450.296 390.593 450.296 389.574V391.072C450.297 391.577 450.19 392.077 449.983 392.544C449.777 393.01 449.474 393.434 449.092 393.791C448.71 394.148 448.256 394.431 447.757 394.624C447.258 394.817 446.723 394.917 446.183 394.917Z" fill="#F29E25"/>
<path d="M446.183 396.075H406.549C405.458 396.075 404.412 395.67 403.641 394.949C402.869 394.228 402.436 393.25 402.436 392.23V389.662C402.436 388.642 402.869 387.664 403.641 386.943C404.412 386.222 405.458 385.817 406.549 385.817H446.183C447.274 385.817 448.32 386.222 449.092 386.943C449.863 387.664 450.296 388.642 450.296 389.662V392.23C450.297 392.735 450.19 393.235 449.983 393.702C449.777 394.168 449.474 394.592 449.092 394.949C448.71 395.306 448.256 395.589 447.757 395.782C447.258 395.975 446.723 396.075 446.183 396.075Z" stroke="#474747" stroke-width="6" stroke-miterlimit="10" stroke-linecap="round" stroke-linejoin="round"/>
<path d="M452.779 385.817H413.145C412.054 385.817 411.008 385.412 410.237 384.691C409.466 383.97 409.032 382.993 409.032 381.973V379.404C409.032 378.899 409.139 378.4 409.345 377.933C409.552 377.467 409.855 377.043 410.237 376.686C410.619 376.329 411.072 376.046 411.571 375.853C412.07 375.659 412.605 375.56 413.145 375.56H452.779C453.32 375.56 453.854 375.659 454.354 375.853C454.853 376.046 455.306 376.329 455.688 376.686C456.07 377.043 456.373 377.467 456.58 377.933C456.786 378.4 456.893 378.899 456.893 379.404V381.973C456.893 382.993 456.459 383.97 455.688 384.691C454.917 385.412 453.87 385.817 452.779 385.817Z" fill="#FDB740"/>
<path opacity="0.88" d="M452.779 376.618H413.145C412.054 376.618 411.008 377.023 410.237 377.744C409.466 378.465 409.032 379.442 409.032 380.462V381.961C409.032 380.941 409.466 379.963 410.237 379.242C411.008 378.521 412.054 378.116 413.145 378.116H452.779C453.87 378.116 454.917 378.521 455.688 379.242C456.459 379.963 456.893 380.941 456.893 381.961V380.462C456.892 379.442 456.459 378.465 455.688 377.744C454.916 377.023 453.87 376.618 452.779 376.618Z" fill="#FFF3C0"/>
<path d="M452.779 384.659H413.145C412.605 384.659 412.07 384.56 411.571 384.367C411.072 384.173 410.619 383.89 410.237 383.533C409.855 383.176 409.552 382.753 409.345 382.286C409.139 381.82 409.032 381.32 409.032 380.815V379.316C409.032 380.336 409.466 381.314 410.237 382.035C411.008 382.756 412.054 383.161 413.145 383.161H452.779C453.87 383.161 454.917 382.756 455.688 382.035C456.459 381.314 456.893 380.336 456.893 379.316V380.815C456.893 381.32 456.786 381.82 456.58 382.286C456.373 382.753 456.07 383.176 455.688 383.533C455.306 383.89 454.853 384.173 454.354 384.367C453.854 384.56 453.32 384.659 452.779 384.659Z" fill="#F29E25"/>
<path d="M452.779 385.817H413.145C412.054 385.817 411.008 385.412 410.237 384.691C409.466 383.97 409.032 382.993 409.032 381.973V379.404C409.032 378.899 409.139 378.4 409.345 377.933C409.552 377.467 409.855 377.043 410.237 376.686C410.619 376.329 411.072 376.046 411.571 375.853C412.07 375.659 412.605 375.56 413.145 375.56H452.779C453.32 375.56 453.854 375.659 454.354 375.853C454.853 376.046 455.306 376.329 455.688 376.686C456.07 377.043 456.373 377.467 456.58 377.933C456.786 378.4 456.893 378.899 456.893 379.404V381.973C456.893 382.993 456.459 383.97 455.688 384.691C454.917 385.412 453.87 385.817 452.779 385.817Z" stroke="#474747" stroke-width="6" stroke-miterlimit="10" stroke-linecap="round" stroke-linejoin="round"/>
<path d="M446.183 375.56H406.549C406.009 375.56 405.474 375.461 404.975 375.267C404.476 375.074 404.023 374.791 403.641 374.434C403.259 374.077 402.956 373.653 402.749 373.187C402.542 372.721 402.436 372.221 402.436 371.716V369.147C402.436 368.127 402.869 367.15 403.641 366.429C404.412 365.708 405.458 365.303 406.549 365.303H446.183C447.274 365.303 448.32 365.708 449.092 366.429C449.863 367.15 450.296 368.127 450.296 369.147V371.716C450.297 372.221 450.19 372.721 449.983 373.187C449.777 373.653 449.474 374.077 449.092 374.434C448.71 374.791 448.256 375.074 447.757 375.268C447.258 375.461 446.723 375.56 446.183 375.56Z" fill="#FDB740"/>
<path opacity="0.88" d="M446.183 366.36H406.549C405.458 366.36 404.412 366.765 403.641 367.486C402.869 368.207 402.436 369.185 402.436 370.205V371.703C402.436 371.198 402.542 370.699 402.749 370.232C402.956 369.766 403.259 369.342 403.641 368.985C404.023 368.628 404.476 368.345 404.975 368.152C405.474 367.958 406.009 367.859 406.549 367.859H446.183C446.723 367.859 447.258 367.958 447.757 368.152C448.256 368.345 448.71 368.628 449.092 368.985C449.474 369.342 449.777 369.766 449.983 370.232C450.19 370.699 450.296 371.198 450.296 371.703V370.205C450.297 369.7 450.19 369.2 449.983 368.733C449.777 368.267 449.474 367.843 449.092 367.486C448.71 367.129 448.256 366.846 447.757 366.653C447.258 366.46 446.723 366.36 446.183 366.36Z" fill="#FFF3C0"/>
<path d="M446.183 374.402H406.549C405.458 374.402 404.412 373.997 403.641 373.276C402.869 372.555 402.436 371.577 402.436 370.558V369.059C402.436 369.564 402.542 370.064 402.749 370.53C402.956 370.997 403.259 371.42 403.641 371.777C404.023 372.134 404.476 372.418 404.975 372.611C405.474 372.804 406.009 372.903 406.549 372.903H446.183C446.723 372.903 447.258 372.804 447.757 372.611C448.256 372.418 448.71 372.134 449.092 371.777C449.474 371.42 449.777 370.997 449.983 370.53C450.19 370.064 450.296 369.564 450.296 369.059V370.558C450.297 371.063 450.19 371.563 449.983 372.029C449.777 372.495 449.474 372.919 449.092 373.276C448.71 373.633 448.256 373.916 447.757 374.11C447.258 374.303 446.723 374.402 446.183 374.402Z" fill="#F29E25"/>
<path d="M446.183 375.56H406.549C406.009 375.56 405.474 375.461 404.975 375.267C404.476 375.074 404.023 374.791 403.641 374.434C403.259 374.077 402.956 373.653 402.749 373.187C402.542 372.721 402.436 372.221 402.436 371.716V369.147C402.436 368.127 402.869 367.15 403.641 366.429C404.412 365.708 405.458 365.303 406.549 365.303H446.183C447.274 365.303 448.32 365.708 449.092 366.429C449.863 367.15 450.296 368.127 450.296 369.147V371.716C450.297 372.221 450.19 372.721 449.983 373.187C449.777 373.653 449.474 374.077 449.092 374.434C448.71 374.791 448.256 375.074 447.757 375.268C447.258 375.461 446.723 375.56 446.183 375.56Z" stroke="#474747" stroke-width="6" stroke-miterlimit="10" stroke-linecap="round" stroke-linejoin="round"/>
<path d="M401.328 367.803L374.253 394.856C373.884 395.225 373.441 395.522 372.949 395.731C372.457 395.939 371.926 396.056 371.386 396.072C370.846 396.089 370.308 396.007 369.802 395.829C369.297 395.651 368.834 395.383 368.439 395.038L366.432 393.283C366.037 392.938 365.719 392.524 365.496 392.064C365.273 391.605 365.149 391.108 365.131 390.604C365.113 390.099 365.201 389.596 365.391 389.123C365.581 388.651 365.869 388.218 366.238 387.849L393.312 360.796C393.681 360.427 394.125 360.13 394.616 359.921C395.108 359.713 395.639 359.597 396.179 359.58C396.719 359.563 397.257 359.646 397.763 359.823C398.269 360.001 398.732 360.27 399.126 360.615L401.133 362.369C401.93 363.066 402.398 364.03 402.434 365.049C402.471 366.068 402.073 367.058 401.328 367.803Z" fill="#FDB740"/>
<path opacity="0.88" d="M394.139 361.519L367.064 388.572C366.319 389.317 365.921 390.307 365.957 391.326C365.994 392.346 366.462 393.309 367.258 394.006L368.429 395.029C368.035 394.685 367.717 394.27 367.494 393.811C367.27 393.351 367.146 392.855 367.128 392.35C367.11 391.846 367.199 391.343 367.389 390.87C367.579 390.397 367.866 389.964 368.235 389.596L395.31 362.543C396.055 361.798 397.086 361.361 398.177 361.327C399.267 361.293 400.327 361.665 401.124 362.361L399.953 361.337C399.156 360.641 398.096 360.269 397.006 360.303C395.915 360.337 394.884 360.774 394.139 361.519Z" fill="#FFF3C0"/>
<path d="M400.422 367.012L373.348 394.065C372.979 394.434 372.536 394.731 372.044 394.94C371.552 395.149 371.021 395.265 370.481 395.281C369.941 395.298 369.403 395.216 368.897 395.038C368.392 394.861 367.928 394.592 367.534 394.247L366.363 393.223C367.16 393.92 368.22 394.292 369.31 394.258C370.4 394.224 371.431 393.786 372.177 393.042L399.251 365.989C399.997 365.244 400.395 364.253 400.358 363.234C400.322 362.215 399.854 361.251 399.057 360.555L400.228 361.578C401.025 362.275 401.493 363.239 401.529 364.258C401.566 365.277 401.168 366.267 400.422 367.012Z" fill="#F29E25"/>
<path d="M401.328 367.803L374.253 394.856C373.884 395.225 373.441 395.522 372.949 395.731C372.457 395.939 371.926 396.056 371.386 396.072C370.846 396.089 370.308 396.007 369.802 395.829C369.297 395.651 368.834 395.383 368.439 395.038L366.432 393.283C366.037 392.938 365.719 392.524 365.496 392.064C365.273 391.605 365.149 391.108 365.131 390.604C365.113 390.099 365.201 389.596 365.391 389.123C365.581 388.651 365.869 388.218 366.238 387.849L393.312 360.796C393.681 360.427 394.125 360.13 394.616 359.921C395.108 359.713 395.639 359.597 396.179 359.58C396.719 359.563 397.257 359.646 397.763 359.823C398.269 360.001 398.732 360.27 399.126 360.615L401.133 362.369C401.93 363.066 402.398 364.03 402.434 365.049C402.471 366.068 402.073 367.058 401.328 367.803Z" stroke="#474747" stroke-width="6" stroke-miterlimit="10" stroke-linecap="round" stroke-linejoin="round"/>
</g>
<defs>
<filter id="filter0_d_92_702" x="-4" y="0" width="574" height="537" filterUnits="userSpaceOnUse" color-interpolation-filters="sRGB">
<feFlood flood-opacity="0" result="BackgroundImageFix"/>
<feColorMatrix in="SourceAlpha" type="matrix" values="0 0 0 0 0 0 0 0 0 0 0 0 0 0 0 0 0 0 127 0" result="hardAlpha"/>
<feOffset dy="4"/>
<feGaussianBlur stdDeviation="2"/>
<feComposite in2="hardAlpha" operator="out"/>
<feColorMatrix type="matrix" values="0 0 0 0 0 0 0 0 0 0 0 0 0 0 0 0 0 0 0.25 0"/>
<feBlend mode="normal" in2="BackgroundImageFix" result="effect1_dropShadow_92_702"/>
<feBlend mode="normal" in="SourceGraphic" in2="effect1_dropShadow_92_702" result="shape"/>
</filter>
</defs>
</svg>
