<svg xmlns="http://www.w3.org/2000/svg" xmlns:xlink="http://www.w3.org/1999/xlink" height="800" width="1200" viewBox="-36 -25.1475 312 150.885"><path d="M109.75 84.278v-7.732h2.426c3.417 0 7.158.121 7.158 3.625 0 3.705-3.609 4.107-7.875 4.107h-1.709m0 4.23h3.151l9.461 11.393h9.91l-11.558-12.357c2.43-.768 7.486-2.258 7.486-7.455 0-7.57-10.244-7.773-15.3-7.773h-10.635c-1.118 0-1.382.121-1.382.85v26.75s.264-.006 1.382-.006h6.106l1.377.006V88.508zm68.455 7.854c-4.924 0-7.023-3.949-7.023-10.232 0-6.281 2.1-10.268 7.023-10.268 4.925 0 7.027 3.945 7.027 10.268 0 6.282-2.102 10.232-7.027 10.232m16.352-10.233c0-9.746-6.239-14.498-16.352-14.498s-16.35 4.713-16.35 14.498c0 9.75 6.17 14.461 16.35 14.461 10.178 0 16.352-4.711 16.352-14.461M80.868 87.662h12.421v-4.35H80.868v-6.645h13.858l1.885-4.352H73.27c-.912.006-1.212.119-1.266.633v26.951l24.295.008.002-.848v-2.656l.004-.85H80.868v-7.891m147.071-15.347h-4.796l-1.38-.006s.167 16.664.167 17.949L207.12 72.84c-.392-.443-.524-.525-1.509-.525h-5.385l-.153.002c-.857.006-1.16.119-1.224.594v27.004s.262-.006 1.377-.006h4.795c1.115 0 1.38.006 1.38.006V84.561c0-1.854-.057-3.078-.057-3.605 0 0 15.139 17.711 15.751 18.385.605.68 1.509.568 1.509.568h4.334l1.376.016V72.309l-1.375.006M8.866 87.662h12.417v-4.35H8.866v-6.645h13.857l1.886-4.352H1.275c-.988.007-1.257.14-1.275.779v26.807l24.295.008v-3.504l.008-.85H8.866v-7.893m38.903 1.813L37.223 73.053c-.393-.441-.524-.52-1.509-.52h-5.386l-1.38.006v27.594s.264-.01 1.38-.01h4.796c1.114 0 1.374.01 1.374.01V84.778c0-1.854-.05-2.58-.05-3.105 0 0 10.403 16.66 11.432 17.832l.056-.002c1.039-1.176 10.902-17.83 10.902-17.83 0 .525-.056 1.252-.056 3.105v15.355s.264-.01 1.378-.01h4.792c1.12 0 1.382.01 1.382.01V72.539l-1.382-.006H59.57c-.987 0-1.116.078-1.509.52L48.05 89.475h-.281m106.761-4.438c-5.466-2.617-12.912-2.854-12.912-5.912 0-2.418 2.422-3.143 5.28-3.143 4.47 0 8.32 1.771 8.692 1.771.248 0 .497-.16.684-.404l.42-.545 2.224-2.832c0-.002.002-.002.002-.002l-.063-.025a18.172 18.172 0 00-1.911-.762c-2.216-.736-6.299-1.553-10.296-1.553-7.205 0-13.662 2.416-13.662 8.217 0 3.344 1.526 5.455 4.819 6.748 6.334 2.496 12.693 2.355 12.693 5.939 0 2.496-1.552 3.705-5.031 3.705-5.342 0-9.939-1.773-10.306-1.773-.251 0-.563.164-.686.404l-.681 1.266-1.19 2.207.973.367c1.979.783 7.154 1.879 12.138 1.879 7.827 0 13.56-2.563 13.413-8.498-.071-3.058-1.434-5.524-4.6-7.054m79.332 14.897v-3.188h-1.206v-.3h2.933v.3h-1.212v3.188zm4.425 0h-.471l-1.255-3.168v3.168h-.411v-3.49h.751l1.212 2.986 1.158-2.986H240v3.49h-.474v-3.197z" fill="#004685"/><g transform="translate(-5 -5.533)"><defs><path d="M116.662 11.369a.603.603 0 00-.033.395c.206.528 15.079 18.761 15.079 18.761l7.509 3.125c2.411 1.037 2.896.765 3.059.58l.036-.062c.146-.277-.268-.865-.869-1.615L121.718 8.398c-1.838-2.203-1.678-2.642-1.587-2.865z" id="a"/></defs><clipPath id="c"><use height="100%" width="100%" overflow="visible" xlink:href="#a"/></clipPath><linearGradient gradientTransform="matrix(14.7245 8.6009 8.6009 -14.7245 -917.927 8547.972)" y2="462.805" x2="-198.133" y1="462.805" x1="-200.106" gradientUnits="userSpaceOnUse" id="b"><stop offset="0" stop-color="#949698"/><stop offset=".103" stop-color="#9fa1a3"/><stop offset=".284" stop-color="#bcbebf"/><stop offset=".5" stop-color="#e7e8e9"/><stop offset=".6" stop-color="#dddedf"/><stop offset=".772" stop-color="#c2c3c5"/><stop offset=".993" stop-color="#96989a"/><stop offset="1" stop-color="#949698"/></linearGradient><path fill="url(#b)" clip-path="url(#c)" d="M135.878 45.956l-31.989-18.685 19.28-33.007 31.987 18.685z"/></g><g transform="translate(-5 -5.533)"><defs><path d="M106.815 28.008l-.019.037c-.16.276.223.908.827 1.655l1.436 1.763 12.236 5.085-3.933-4.815-7.511-3.125c-1.372-.592-2.118-.757-2.534-.757h-.01c-.291 0-.42.084-.492.157" id="d"/></defs><clipPath id="f"><use height="100%" width="100%" overflow="visible" xlink:href="#d"/></clipPath><linearGradient gradientTransform="matrix(7.3568 4.2972 4.2972 -7.3568 -309.391 4452.506)" y2="473.059" x2="-217.775" y1="473.059" x1="-219.748" gradientUnits="userSpaceOnUse" id="e"><stop offset="0" stop-color="#949698"/><stop offset=".206" stop-color="#9fa1a3"/><stop offset=".568" stop-color="#bcbebf"/><stop offset="1" stop-color="#e7e8e9"/></linearGradient><path fill="url(#e)" clip-path="url(#f)" d="M117.566 42.933l-14.718-8.597 7.517-12.87 14.718 8.598z"/></g><g transform="translate(-5 -5.533)"><defs><path d="M110.326 22.135a.588.588 0 00-.106.11l-3.436 5.802c.01-.013.017-.025.031-.039.175-.181.69-.412 3.035.6l27.152 11.29c.41.148 1.351.445 1.74.226a.82.82 0 00.165-.193l3.384-5.719a.162.162 0 00-.017.019c-.162.185-.647.457-3.059-.58l-27.168-11.295c-.312-.112-.898-.299-1.339-.299a.78.78 0 00-.382.078" id="g"/></defs><clipPath id="i"><use height="100%" width="100%" overflow="visible" xlink:href="#g"/></clipPath><linearGradient gradientTransform="matrix(14.778 8.6321 8.6321 -14.778 -925.51 8582.99)" y2="462.414" x2="-198.065" y1="462.414" x1="-200.038" gradientUnits="userSpaceOnUse" id="h"><stop offset="0" stop-color="#004786"/><stop offset=".202" stop-color="#004786"/><stop offset=".275" stop-color="#175490"/><stop offset=".425" stop-color="#5076a9"/><stop offset=".506" stop-color="#7289b7"/><stop offset=".56" stop-color="#5b7cad"/><stop offset=".725" stop-color="#1a5691"/><stop offset=".803" stop-color="#004786"/><stop offset="1" stop-color="#004786"/></linearGradient><path fill="url(#h)" clip-path="url(#i)" d="M133.259 55.809l-34.44-20.118L115.818 6.59l34.44 20.118z"/></g><g transform="translate(-5 -5.533)"><defs><path d="M101.888 36.323l-.017.031c-.158.275.225.908.829 1.653l1.436 1.763 11.932 4.964.081.031.226.092-3.935-4.813-7.513-3.125c-1.372-.593-2.116-.761-2.532-.761-.302 0-.434.088-.507.165" id="j"/></defs><clipPath id="l"><use height="100%" width="100%" overflow="visible" xlink:href="#j"/></clipPath><linearGradient gradientTransform="matrix(7.3576 4.2977 4.2977 -7.3576 -311.957 4457.167)" y2="472.499" x2="-217.776" y1="472.499" x1="-219.749" gradientUnits="userSpaceOnUse" id="k"><stop offset="0" stop-color="#949698"/><stop offset=".206" stop-color="#9fa1a3"/><stop offset=".568" stop-color="#bcbebf"/><stop offset="1" stop-color="#e7e8e9"/></linearGradient><path fill="url(#k)" clip-path="url(#l)" d="M112.645 51.244l-14.72-8.598 7.516-12.873 14.723 8.599z"/></g><g transform="translate(-5 -5.533)"><defs><path d="M96.965 44.63l-.017.031c-.16.275.227.908.829 1.653l19.72 24.16c1.759 2.105 1.78 2.533 1.63 2.797l3.428-5.766s.125-.166.05-.449c-.116-.318-.441-.756-.854-1.27L107.515 48.35l-7.513-3.125c-1.368-.593-2.116-.759-2.532-.759-.301 0-.434.087-.505.164" id="m"/></defs><clipPath id="o"><use height="100%" width="100%" overflow="visible" xlink:href="#m"/></clipPath><linearGradient gradientTransform="scale(17.0469 -17.0469) rotate(-30.29 -955.302 -150.554)" y2="461.546" x2="-198.145" y1="461.546" x1="-200.119" gradientUnits="userSpaceOnUse" id="n"><stop offset="0" stop-color="#949698"/><stop offset=".103" stop-color="#9fa1a3"/><stop offset=".284" stop-color="#bcbebf"/><stop offset=".5" stop-color="#e7e8e9"/><stop offset=".6" stop-color="#dddedf"/><stop offset=".772" stop-color="#c2c3c5"/><stop offset=".993" stop-color="#96989a"/><stop offset="1" stop-color="#949698"/></linearGradient><path fill="url(#n)" clip-path="url(#o)" d="M116.094 84.549L84.243 65.943l19.131-32.753 31.851 18.605z"/></g><g transform="translate(-5 -5.533)"><defs><path d="M100.479 38.751c-.015.008-.038.039-.04.041-.023.025-.052.046-.064.069 0 0-3.42 5.783-3.411 5.77.172-.183.675-.426 3.037.595l27.15 11.288c.412.148 1.354.445 1.744.225a.82.82 0 00.165-.193l3.384-5.718a.043.043 0 01-.015.018c-.16.183-.642.462-3.061-.58l-25.235-10.494-1.933-.8c-.314-.114-.898-.298-1.335-.298a.776.776 0 00-.386.077" id="p"/></defs><clipPath id="r"><use height="100%" width="100%" overflow="visible" xlink:href="#p"/></clipPath><linearGradient gradientTransform="matrix(14.7748 8.6302 8.6302 -14.7748 -930.213 8589.598)" y2="461.858" x2="-198.073" y1="461.858" x1="-200.046" gradientUnits="userSpaceOnUse" id="q"><stop offset="0" stop-color="#004786"/><stop offset=".202" stop-color="#004786"/><stop offset=".275" stop-color="#175490"/><stop offset=".425" stop-color="#5076a9"/><stop offset=".506" stop-color="#7289b7"/><stop offset=".56" stop-color="#5b7cad"/><stop offset=".725" stop-color="#1a5691"/><stop offset=".803" stop-color="#004786"/><stop offset="1" stop-color="#004786"/></linearGradient><path fill="url(#q)" clip-path="url(#r)" d="M123.416 72.416L88.991 52.307l16.992-29.091 34.427 20.108z"/></g><g transform="translate(-5 -5.533)"><defs><path d="M122.85 34.015l3.933 4.817 7.512 3.125c2.416 1.039 2.896.763 3.058.58l.037-.06c.148-.28-.267-.867-.869-1.615l-1.432-1.759z" id="s"/></defs><clipPath id="u"><use height="100%" width="100%" overflow="visible" xlink:href="#s"/></clipPath><linearGradient gradientTransform="scale(8.5255 -8.5255) rotate(-30.29 -983.739 -196.09)" y2="473.214" x2="-216.772" y1="473.214" x1="-218.746" gradientUnits="userSpaceOnUse" id="t"><stop offset="0" stop-color="#e7e8e9"/><stop offset=".201" stop-color="#dddedf"/><stop offset=".544" stop-color="#c2c3c5"/><stop offset=".985" stop-color="#96989a"/><stop offset="1" stop-color="#949698"/></linearGradient><path fill="url(#t)" clip-path="url(#u)" d="M133.801 49.394l-14.863-8.681 7.648-13.094 14.862 8.681z"/></g><g transform="translate(-5 -5.533)"><defs><path d="M105.401 30.442a.757.757 0 00-.102.111l-3.438 5.8.027-.031c.173-.183.673-.426 3.037.595l27.153 11.286c.412.15 1.353.445 1.739.226.045-.021.146-.154.168-.193l3.386-5.719c-.004.008-.012.014-.02.02-.162.183-.642.458-3.058-.58l-7.512-3.125-17.724-7.369-1.933-.802c-.312-.111-.898-.296-1.337-.296a.804.804 0 00-.386.077" id="v"/></defs><clipPath id="x"><use height="100%" width="100%" overflow="visible" xlink:href="#v"/></clipPath><linearGradient gradientTransform="matrix(14.7786 8.6324 8.6324 -14.7786 -928.033 8587.5)" y2="462.135" x2="-198.066" y1="462.135" x1="-200.04" gradientUnits="userSpaceOnUse" id="w"><stop offset="0" stop-color="#004786"/><stop offset=".202" stop-color="#004786"/><stop offset=".275" stop-color="#175490"/><stop offset=".425" stop-color="#5076a9"/><stop offset=".506" stop-color="#7289b7"/><stop offset=".56" stop-color="#5b7cad"/><stop offset=".725" stop-color="#1a5691"/><stop offset=".803" stop-color="#004786"/><stop offset="1" stop-color="#004786"/></linearGradient><path fill="url(#w)" clip-path="url(#x)" d="M128.338 64.115L93.897 43.998l16.998-29.099 34.438 20.118z"/></g><g transform="translate(-5 -5.533)"><defs><path d="M113.001 50.631l9.421 11.535c1.761 2.111 1.778 2.533 1.63 2.799l3.445-5.795a.592.592 0 00.029-.428c-.118-.313-2.286-3.021-2.286-3.021z" id="y"/></defs><clipPath id="A"><use height="100%" width="100%" overflow="visible" xlink:href="#y"/></clipPath><linearGradient gradientTransform="scale(8.5255 -8.5255) rotate(-30.29 -986.11 -195.435)" y2="471.959" x2="-216.78" y1="471.959" x1="-218.753" gradientUnits="userSpaceOnUse" id="z"><stop offset="0" stop-color="#e7e8e9"/><stop offset=".201" stop-color="#dddedf"/><stop offset=".544" stop-color="#c2c3c5"/><stop offset=".985" stop-color="#96989a"/><stop offset="1" stop-color="#949698"/></linearGradient><path fill="url(#z)" clip-path="url(#A)" d="M123.873 71.314l-17.113-9.996 9.95-17.037 17.115 9.998z"/></g><g transform="translate(-5 -5.533)"><defs><path d="M117.924 42.322l3.935 4.817 7.511 3.125c2.419 1.042 2.9.763 3.061.58l.034-.058c.146-.281-.266-.867-.869-1.615l-1.432-1.759z" id="B"/></defs><clipPath id="D"><use height="100%" width="100%" overflow="visible" xlink:href="#B"/></clipPath><linearGradient gradientTransform="matrix(7.3627 4.3007 4.3007 -7.3627 -304.349 4463.206)" y2="472.65" x2="-216.772" y1="472.65" x1="-218.745" gradientUnits="userSpaceOnUse" id="C"><stop offset="0" stop-color="#e7e8e9"/><stop offset=".045" stop-color="#e7e8e9"/><stop offset=".237" stop-color="#dddedf"/><stop offset=".564" stop-color="#c2c3c5"/><stop offset=".986" stop-color="#96989a"/><stop offset="1" stop-color="#949698"/></linearGradient><path fill="url(#C)" clip-path="url(#D)" d="M128.875 57.703l-14.862-8.683 7.648-13.094 14.862 8.681z"/></g><g transform="translate(-5 -5.533)"><defs><path d="M111.739 19.676a.571.571 0 00-.035.387c.098.328.416.8.842 1.33l1.436 1.763 12.238 5.085-9.423-11.537c-1.842-2.203-1.682-2.64-1.591-2.865z" id="E"/></defs><clipPath id="G"><use height="100%" width="100%" overflow="visible" xlink:href="#E"/></clipPath><linearGradient gradientTransform="matrix(7.3624 4.3005 4.3005 -7.3624 -306.777 4450.424)" y2="473.754" x2="-217.742" y1="473.754" x1="-219.716" gradientUnits="userSpaceOnUse" id="F"><stop offset="0" stop-color="#949698"/><stop offset=".206" stop-color="#9fa1a3"/><stop offset=".568" stop-color="#bcbebf"/><stop offset="1" stop-color="#e7e8e9"/></linearGradient><path fill="url(#F)" clip-path="url(#G)" d="M122.516 34.581L105.39 24.579l9.975-17.081 17.127 10.005z"/></g></svg>