<svg xmlns="http://www.w3.org/2000/svg" height="800" width="1200" viewBox="-4.5175755 -1.4774825 39.152321 8.864895"><defs><clipPath clipPathUnits="userSpaceOnUse" id="c"><path d="M0 0h792v612H0z"/></clipPath><clipPath clipPathUnits="userSpaceOnUse" id="b"><path d="M0 0h792v612H0z"/></clipPath><clipPath clipPathUnits="userSpaceOnUse" id="a"><path d="M0 0h792v612H0z"/></clipPath></defs><g fill="#b1181e"><g clip-path="url(#a)" transform="matrix(.35278 0 0 -.35278 -216.202 197.28747)"><path d="M643.1752 554.6865c0 .633.513 1.145 1.146 1.145h4.963c.768 0 1.491-.465 1.783-1.224.378-.985-.114-2.089-1.098-2.467l-3.846-1.417c-1.396-.482-2.137-2.002-1.657-3.398.251-.73.787-1.281 1.44-1.572l7.196-3.266v2.506l-6.295 2.784c-.112.049-.204.144-.247.269-.082.239.045.5.284.582l3.945 1.373c2.165.831 3.246 3.26 2.416 5.425-.642 1.67-2.233 2.696-3.921 2.696h-4.963c-1.898 0-3.437-1.538-3.437-3.436v-11.836h2.291z"/></g><path d="M15.1486 5.78207h.80821V.39409h-.8082z"/><g clip-path="url(#b)" transform="matrix(.35278 0 0 -.35278 -216.202 197.28747)"><path d="M624.1921 558.1227l-4.101-12.717c-.052-.162-.201-.264-.363-.264-.162 0-.303.097-.363.264l-4.101 12.717h-2.408l4.33-13.425c.365-1.125 1.407-1.848 2.542-1.848 1.136 0 2.175.718 2.542 1.848l4.331 13.425zM671.856 542.85l4.101 12.717c.052.162.2.264.363.264.162 0 .303-.097.363-.263l4.101-12.718h2.409l-4.331 13.426c-.365 1.124-1.407 1.847-2.542 1.847-1.136 0-2.175-.718-2.542-1.848l-4.331-13.425zm-40.5742 12.9817h7.254v2.291h-7.254c-2.109 0-3.818-1.71-3.818-3.818v-7.637c0-2.108 1.709-3.818 3.818-3.818h7.254v2.291h-7.254c-.843 0-1.527.684-1.527 1.527v2.692h7.254v2.253h-7.254v2.692c0 .843.684 1.527 1.527 1.527"/></g><path d="M20.56352.3942h-3.93311v.80821h1.56245v4.57976h.80821V1.20241h1.56245z"/><g clip-path="url(#c)" transform="matrix(.35278 0 0 -.35278 -216.202 197.28747)"><path d="M691.7008 542.85c2.425 0 4.391 1.966 4.391 4.391s-1.966 4.391-4.391 4.391h-3.818c-1.16 0-2.101.94-2.101 2.1 0 1.16.941 2.1 2.101 2.1h7.445v2.291h-7.445c-2.425 0-4.391-1.966-4.391-4.391s1.966-4.391 4.391-4.391l3.818-.001c1.16 0 2.1-.94 2.1-2.099 0-1.16-.94-2.1-2.1-2.1h-7.446v-2.291z"/></g><path d="M29.92138.29775l.0247-.06985L30.03533 0h.08184v.39405h-.06738V.20144l.00141-.06738-.02187.05574-.07867.20425h-.05856L29.81343.1898l-.02187-.05574.00141.06738v.19261h-.06738V0h.08184l.0889.2279zm-.37077.0963h-.0702V.06562h-.11677V0h.30515v.06562h-.11818z"/></g></svg>