<?xml version="1.0" encoding="utf-8"?>
<!-- Generator: Adobe Illustrator 26.0.3, SVG Export Plug-In . SVG Version: 6.00 Build 0)  -->
<svg version="1.0" id="katman_1" xmlns="http://www.w3.org/2000/svg" xmlns:xlink="http://www.w3.org/1999/xlink" x="0px" y="0px"
	 viewBox="0 0 800 600" style="enable-background:new 0 0 800 600;" xml:space="preserve">
<style type="text/css">
	.st0{fill:#2D4D83;}
	.st1{fill:#213B7E;}
	.st2{fill:#0E4C8B;}
	.st3{fill:#3468A7;}
	.st4{fill:#4594D1;}
	.st5{fill:#309BC0;}
	.st6{fill:#02A69B;}
	.st7{fill:#0DA272;}
	.st8{fill:#57B46D;}
	.st9{fill:#7FBD63;}
	.st10{fill:#4D6199;}
	.st11{fill:#756FA3;}
	.st12{fill:#A14993;}
	.st13{fill:#B03B81;}
	.st14{fill:#B32D6C;}
	.st15{fill:#D45051;}
	.st16{fill:#EC6047;}
	.st17{fill:#EF7D31;}
	.st18{fill:#F39513;}
	.st19{fill:#FAB825;}
	.st20{fill:#FFCC1E;}
	.st21{fill:#362459;}
</style>
<path class="st0" d="M632.3,251.1c3.3,12.1,15.7,19.4,27.9,16.1c12.2-3.3,19.4-15.7,16.1-27.9c-3.3-12.1-15.7-19.4-27.9-16.1
	C636.2,226.4,629,238.9,632.3,251.1"/>
<path class="st0" d="M601.3,275.5c8.3-2.2,13.2-10.7,11-19c-2.2-8.3-10.7-13.2-19-11c-8.3,2.2-13.2,10.7-11,19
	C584.5,272.8,593,277.7,601.3,275.5"/>
<path class="st0" d="M555.7,283.4c6.1-1.6,9.7-7.9,8.1-13.9c-1.6-6.1-7.9-9.7-13.9-8.1c-6.1,1.6-9.7,7.9-8.1,13.9
	C543.4,281.4,549.6,285,555.7,283.4"/>
<path class="st0" d="M520.1,288.6c3.9-1,6.2-5,5.1-8.9c-1-3.9-5-6.2-8.9-5.1c-3.9,1-6.2,5-5.1,8.9
	C512.3,287.4,516.2,289.7,520.1,288.6"/>
<path class="st1" d="M615.3,204.9c5.7,9.9,18.4,13.3,28.3,7.6c9.9-5.7,13.3-18.4,7.6-28.3c-5.7-9.9-18.4-13.3-28.3-7.6
	C613,182.3,609.6,195,615.3,204.9"/>
<path class="st1" d="M569.5,231.3c4,6.9,12.9,9.3,19.8,5.3c6.9-4,9.3-12.9,5.3-19.8c-4-6.9-12.9-9.3-19.8-5.3
	C567.9,215.5,565.5,224.3,569.5,231.3"/>
<path class="st1" d="M537,238.1c-5,2.9-6.7,9.2-3.8,14.2c2.9,5,9.2,6.6,14.1,3.8c5-2.9,6.6-9.2,3.8-14.1
	C548.3,236.9,542,235.2,537,238.1"/>
<path class="st1" d="M507.9,259.1c-3.2,1.8-4.3,6-2.5,9.2c1.9,3.2,6,4.3,9.2,2.5c3.2-1.9,4.3-6,2.5-9.2
	C515.2,258.3,511.1,257.2,507.9,259.1"/>
<path class="st2" d="M612.9,164.2c7.3-7.3,7.3-19.1,0-26.4c-7.3-7.3-19.1-7.3-26.4,0c-7.3,7.3-7.3,19.1,0,26.4
	C593.9,171.5,605.7,171.5,612.9,164.2"/>
<path class="st2" d="M567.5,183.2c-5.3-5.3-13.8-5.3-19,0c-5.2,5.3-5.2,13.8,0,19c5.3,5.3,13.8,5.3,19,0
	C572.8,197,572.8,188.5,567.5,183.2"/>
<path class="st2" d="M518.9,218.7c-3.6,3.6-3.6,9.6,0,13.2c3.6,3.6,9.5,3.6,13.2,0c3.6-3.6,3.6-9.5,0-13.2
	C528.4,215.1,522.5,215.1,518.9,218.7"/>
<path class="st2" d="M495.8,255c2.4,2.4,6.4,2.4,8.8,0c2.4-2.4,2.4-6.4,0-8.8c-2.4-2.4-6.4-2.4-8.8,0
	C493.4,248.6,493.4,252.6,495.8,255"/>
<path class="st3" d="M547.4,132.9c8.4,4.9,19.2,2,24-6.4c4.9-8.4,2-19.2-6.4-24c-8.4-4.9-19.2-2-24.1,6.4
	C536.1,117.3,539,128,547.4,132.9"/>
<path class="st3" d="M515.9,162.6c-3.4,5.9-1.4,13.5,4.5,17c5.9,3.4,13.5,1.4,17-4.5c3.4-5.9,1.4-13.5-4.6-17
	C526.9,154.6,519.4,156.6,515.9,162.6"/>
<path class="st3" d="M507.8,201.5c-4-2.3-9-0.9-11.3,3c-2.3,4-0.9,9,3,11.3c4,2.3,9,0.9,11.3-3C513.1,208.9,511.7,203.8,507.8,201.5
	"/>
<path class="st3" d="M488.6,234.7c-2.7-1.6-6.2-0.6-7.8,2.1c-1.6,2.7-0.6,6.2,2.1,7.8c2.7,1.6,6.2,0.6,7.8-2.1
	C492.3,239.7,491.3,236.3,488.6,234.7"/>
<path class="st4" d="M501.2,112.7c8.8,2.4,17.9-2.9,20.3-11.7c2.4-8.8-2.9-17.9-11.7-20.3c-8.8-2.4-17.9,2.9-20.3,11.7
	C487.1,101.3,492.3,110.3,501.2,112.7"/>
<path class="st4" d="M487.2,164.7c6.1,1.6,12.3-2,13.9-8.1c1.6-6.1-2-12.3-8.1-13.9c-6.1-1.6-12.3,2-14,8.1
	C477.6,156.8,481.2,163.1,487.2,164.7"/>
<path class="st4" d="M476.2,205.7c4.1,1.1,8.4-1.4,9.5-5.5c1.1-4.1-1.3-8.4-5.5-9.5c-4.1-1.1-8.4,1.3-9.5,5.5
	C469.6,200.4,472.1,204.6,476.2,205.7"/>
<path class="st4" d="M464,231.4c-0.7,2.8,0.9,5.6,3.7,6.3c2.8,0.7,5.6-0.9,6.3-3.7c0.7-2.8-0.9-5.6-3.7-6.3
	C467.6,227,464.8,228.6,464,231.4"/>
<path class="st5" d="M451,105.1c8.6,0,15.5-7,15.5-15.5c0-8.6-7-15.5-15.5-15.5c-8.6,0-15.5,7-15.5,15.5
	C435.5,98.2,442.5,105.1,451,105.1"/>
<path class="st5" d="M451,138.3c-5.7,0-10.4,4.6-10.4,10.4c0,5.7,4.6,10.4,10.4,10.4c5.7,0,10.4-4.6,10.4-10.4
	C461.4,142.9,456.8,138.3,451,138.3"/>
<path class="st5" d="M458.3,194.7c0-4-3.2-7.2-7.2-7.2c-4,0-7.3,3.2-7.3,7.2c0,4,3.2,7.3,7.3,7.3C455.1,202,458.3,198.7,458.3,194.7
	"/>
<path class="st5" d="M451,225.8c-2.6,0-4.7,2.1-4.7,4.7c0,2.6,2.1,4.7,4.7,4.7c2.6,0,4.7-2.1,4.7-4.7
	C455.7,227.9,453.6,225.8,451,225.8"/>
<path class="st6" d="M400.4,110.8c7.7-2.1,12.3-10,10.2-17.8c-2.1-7.7-10-12.3-17.8-10.2c-7.7,2.1-12.3,10-10.2,17.7
	C384.7,108.3,392.7,112.9,400.4,110.8"/>
<path class="st6" d="M402.9,156.2c1.3,5,6.4,7.9,11.4,6.6c5-1.3,7.9-6.4,6.6-11.4c-1.3-5-6.4-7.9-11.4-6.6
	C404.5,146.2,401.6,151.3,402.9,156.2"/>
<path class="st6" d="M417.3,200.1c1,3.6,4.7,5.7,8.2,4.8c3.6-1,5.7-4.7,4.8-8.2c-1-3.6-4.6-5.7-8.2-4.8
	C418.5,192.8,416.4,196.5,417.3,200.1"/>
<path class="st6" d="M429.1,233.9c0.6,2.2,2.9,3.5,5.1,2.9c2.2-0.6,3.5-2.9,2.9-5.1c-0.6-2.2-2.9-3.5-5.1-2.9
	C429.8,229.5,428.5,231.7,429.1,233.9"/>
<path class="st7" d="M352.7,129.5c6.4-3.7,8.6-11.9,4.9-18.4c-3.7-6.4-11.9-8.6-18.4-4.9c-6.4,3.7-8.6,12-4.9,18.4
	C338,131,346.3,133.3,352.7,129.5"/>
<path class="st7" d="M379.6,176.2c4-2.3,5.3-7.4,3-11.3c-2.3-4-7.4-5.3-11.3-3c-4,2.3-5.3,7.4-3,11.3
	C370.6,177.1,375.7,178.5,379.6,176.2"/>
<path class="st7" d="M401.6,214.3c3-1.7,4-5.5,2.3-8.5c-1.7-3-5.5-4-8.5-2.3c-3,1.7-4,5.5-2.3,8.5C394.9,215,398.7,216,401.6,214.3"
	/>
<path class="st7" d="M419.5,238c-1-1.7-3.2-2.3-5-1.3c-1.7,1-2.3,3.2-1.3,5c1,1.7,3.2,2.3,5,1.3C419.9,242,420.5,239.8,419.5,238"/>
<path class="st8" d="M311.2,160.1c4.9-4.9,4.9-12.7,0-17.6c-4.8-4.8-12.7-4.8-17.6,0s-4.8,12.7,0,17.6
	C298.5,165,306.4,165,311.2,160.1"/>
<path class="st8" d="M349.3,187.9c-2.8-2.8-7.4-2.8-10.2,0c-2.8,2.8-2.8,7.4,0,10.3c2.8,2.8,7.4,2.8,10.2,0
	C352.2,195.4,352.2,190.8,349.3,187.9"/>
<path class="st8" d="M380.8,221.6c-2.2-2.2-5.8-2.2-8.1,0c-2.2,2.2-2.2,5.8,0,8.1c2.2,2.2,5.8,2.2,8.1,0
	C383,227.5,383,223.9,380.8,221.6"/>
<path class="st8" d="M404.2,248.7c-1.2-1.2-3.2-1.2-4.4,0c-1.2,1.2-1.2,3.2,0,4.4c1.2,1.2,3.2,1.2,4.4,0
	C405.5,251.9,405.5,249.9,404.2,248.7"/>
<path class="st9" d="M263,204.4c5.4,3.1,12.4,1.3,15.6-4.2c3.1-5.5,1.3-12.4-4.2-15.6c-5.4-3.1-12.4-1.3-15.6,4.2
	C255.7,194.2,257.6,201.2,263,204.4"/>
<path class="st9" d="M323.3,219c-3-1.7-6.8-0.7-8.5,2.3c-1.7,3-0.7,6.8,2.3,8.5c3,1.7,6.8,0.7,8.5-2.3
	C327.3,224.6,326.3,220.8,323.3,219"/>
<path class="st9" d="M362.7,243c-2.5-1.4-5.6-0.6-7.1,1.9c-1.4,2.5-0.6,5.6,1.9,7.1c2.5,1.4,5.6,0.6,7.1-1.9
	C366,247.6,365.2,244.4,362.7,243"/>
<path class="st10" d="M661.5,274.7c-13.7,0-24.9,11.1-24.9,24.9c0,13.7,11.1,24.9,24.9,24.9c13.7,0,24.9-11.1,24.9-24.9
	C686.4,285.8,675.3,274.7,661.5,274.7"/>
<path class="st10" d="M620.3,299.6c0-9.8-8-17.8-17.8-17.8c-9.8,0-17.8,8-17.8,17.8c0,9.8,8,17.8,17.8,17.8
	C612.3,317.4,620.3,309.4,620.3,299.6"/>
<path class="st10" d="M556.4,287.4c-6.7,0-12.2,5.4-12.2,12.2c0,6.7,5.4,12.2,12.2,12.2c6.7,0,12.2-5.4,12.2-12.2
	C568.6,292.9,563.1,287.4,556.4,287.4"/>
<path class="st10" d="M528.6,299.6c0-4.4-3.5-7.9-7.9-7.9c-4.4,0-7.9,3.5-7.9,7.9c0,4.4,3.5,7.9,7.9,7.9
	C525,307.5,528.6,304,528.6,299.6"/>
<path class="st11" d="M660.2,332c-12.1-3.3-24.6,4-27.9,16.1c-3.3,12.1,4,24.6,16.1,27.9c12.1,3.3,24.6-4,27.9-16.1
	C679.5,347.7,672.3,335.3,660.2,332"/>
<path class="st11" d="M593.2,353.7c8.3,2.2,16.8-2.7,19-11c2.2-8.3-2.7-16.8-11-19c-8.3-2.2-16.8,2.7-19,11
	C580,343,585,351.5,593.2,353.7"/>
<path class="st11" d="M549.8,337.8c6.1,1.6,12.3-2,13.9-8.1c1.6-6.1-2-12.3-8.1-13.9c-6.1-1.6-12.3,2-13.9,8.1
	C540.1,329.9,543.7,336.2,549.8,337.8"/>
<path class="st11" d="M516.4,324.5c3.9,1,7.8-1.3,8.9-5.1c1-3.9-1.3-7.8-5.1-8.9c-3.9-1-7.8,1.3-8.9,5.1
	C510.2,319.5,512.5,323.5,516.4,324.5"/>
<path class="st12" d="M643.6,386.7c-9.9-5.7-22.6-2.3-28.3,7.6c-5.7,9.9-2.3,22.6,7.6,28.3c9.9,5.7,22.6,2.3,28.3-7.6
	C656.9,405.1,653.5,392.5,643.6,386.7"/>
<path class="st12" d="M594.7,382.4c4-6.9,1.6-15.8-5.3-19.8c-6.9-4-15.8-1.6-19.8,5.3c-4,6.9-1.6,15.8,5.3,19.8
	C581.8,391.7,590.7,389.3,594.7,382.4"/>
<path class="st12" d="M551.2,357.3c2.9-5,1.2-11.3-3.8-14.1c-5-2.9-11.3-1.2-14.1,3.8c-2.9,5-1.2,11.3,3.8,14.1
	C542,363.9,548.3,362.2,551.2,357.3"/>
<path class="st12" d="M517.1,337.6c1.9-3.2,0.8-7.3-2.5-9.2c-3.2-1.9-7.3-0.8-9.2,2.5c-1.9,3.2-0.7,7.3,2.5,9.2
	C511.1,341.9,515.2,340.8,517.1,337.6"/>
<path class="st13" d="M586.6,435c-7.3,7.3-7.3,19.1,0,26.4c7.3,7.3,19.1,7.3,26.4,0c7.3-7.3,7.3-19.1,0-26.4
	C605.7,427.7,593.9,427.7,586.6,435"/>
<path class="st13" d="M567.5,416c5.3-5.3,5.3-13.8,0-19c-5.3-5.3-13.8-5.3-19,0c-5.2,5.3-5.2,13.8,0,19
	C553.8,421.2,562.3,421.2,567.5,416"/>
<path class="st13" d="M532,380.4c3.6-3.6,3.6-9.5,0-13.2c-3.6-3.6-9.5-3.6-13.2,0c-3.6,3.6-3.6,9.5,0,13.2
	C522.5,384.1,528.4,384.1,532,380.4"/>
<path class="st13" d="M495.8,353c2.4,2.4,6.4,2.4,8.8,0c2.4-2.4,2.4-6.4,0-8.8c-2.4-2.4-6.4-2.4-8.8,0
	C493.4,346.6,493.4,350.5,495.8,353"/>
<path class="st14" d="M547.4,466.3c-8.4,4.9-11.3,15.6-6.4,24c4.9,8.4,15.6,11.3,24.1,6.4c8.4-4.9,11.3-15.6,6.4-24
	C566.6,464.3,555.8,461.4,547.4,466.3"/>
<path class="st14" d="M537.4,424.2c-3.4-5.9-11-8-17-4.5c-5.9,3.4-8,11-4.6,17c3.4,5.9,11,8,17,4.5
	C538.8,437.7,540.9,430.2,537.4,424.2"/>
<path class="st14" d="M507.8,397.7c4-2.3,5.3-7.4,3-11.3c-2.3-4-7.4-5.3-11.3-3c-4,2.3-5.3,7.3-3,11.3
	C498.8,398.6,503.8,400,507.8,397.7"/>
<path class="st14" d="M482.9,354.6c-2.7,1.6-3.7,5-2.1,7.8c1.6,2.7,5.1,3.7,7.8,2.1c2.7-1.6,3.7-5.1,2.1-7.8
	C489.1,354,485.7,353.1,482.9,354.6"/>
<path class="st15" d="M501.2,486.5c-8.8,2.4-14.1,11.4-11.7,20.3c2.4,8.8,11.5,14.1,20.3,11.7c8.8-2.4,14.1-11.5,11.7-20.3
	C519.1,489.4,510,484.1,501.2,486.5"/>
<path class="st15" d="M493.1,456.5c6.1-1.6,9.7-7.9,8.1-13.9c-1.6-6.1-7.9-9.7-13.9-8.1c-6.1,1.6-9.7,7.9-8.1,13.9
	C480.8,454.5,487.1,458.1,493.1,456.5"/>
<path class="st15" d="M485.8,398.9c-1.1-4.1-5.4-6.6-9.5-5.5c-4.1,1.1-6.6,5.4-5.5,9.5c1.1,4.1,5.4,6.6,9.5,5.5
	C484.4,407.3,486.9,403.1,485.8,398.9"/>
<path class="st15" d="M474,365.1c-0.7-2.8-3.6-4.4-6.3-3.7c-2.8,0.7-4.4,3.6-3.7,6.3c0.7,2.8,3.6,4.4,6.3,3.7
	C473.1,370.7,474.8,367.9,474,365.1"/>
<path class="st16" d="M451,494c-8.6,0-15.5,7-15.5,15.5c0,8.6,7,15.5,15.5,15.5c8.6,0,15.5-7,15.5-15.5C466.6,501,459.6,494,451,494
	"/>
<path class="st16" d="M440.7,450.6c0,5.7,4.6,10.4,10.4,10.4c5.7,0,10.4-4.6,10.4-10.4c0-5.7-4.6-10.4-10.4-10.4
	C445.3,440.2,440.7,444.8,440.7,450.6"/>
<path class="st16" d="M451,411.7c4,0,7.2-3.2,7.2-7.3c0-4-3.2-7.2-7.2-7.2c-4,0-7.3,3.2-7.3,7.2C443.8,408.5,447,411.7,451,411.7"/>
<path class="st16" d="M451,364.1c-2.6,0-4.7,2.1-4.7,4.7c0,2.6,2.1,4.7,4.7,4.7c2.6,0,4.7-2.1,4.7-4.7
	C455.7,366.2,453.6,364.1,451,364.1"/>
<path class="st17" d="M400.4,488.4c-7.7-2.1-15.7,2.5-17.8,10.2c-2.1,7.7,2.5,15.7,10.2,17.8c7.7,2.1,15.7-2.5,17.8-10.2
	C412.7,498.4,408.1,490.4,400.4,488.4"/>
<path class="st17" d="M414.3,436.3c-5-1.3-10.1,1.6-11.4,6.6c-1.3,5,1.6,10.1,6.6,11.4c5,1.3,10.1-1.6,11.4-6.6
	C422.3,442.8,419.3,437.7,414.3,436.3"/>
<path class="st17" d="M425.6,394.3c-3.6-1-7.3,1.2-8.2,4.8s1.2,7.3,4.8,8.2c3.6,1,7.3-1.2,8.2-4.8
	C431.3,399,429.2,395.3,425.6,394.3"/>
<path class="st17" d="M437.1,367.4c0.6-2.2-0.7-4.5-2.9-5.1c-2.2-0.6-4.5,0.7-5.1,2.9c-0.6,2.2,0.7,4.5,2.9,5.1
	C434.2,370.9,436.5,369.6,437.1,367.4"/>
<path class="st18" d="M352.7,469.6c-6.4-3.7-14.7-1.5-18.4,4.9c-3.7,6.4-1.5,14.7,4.9,18.4c6.4,3.7,14.7,1.5,18.4-4.9
	C361.3,481.6,359.1,473.4,352.7,469.6"/>
<path class="st18" d="M379.6,423c-4-2.3-9-0.9-11.3,3c-2.3,4-0.9,9,3,11.3c4,2.3,9,0.9,11.3-3C384.9,430.4,383.6,425.3,379.6,423"/>
<path class="st18" d="M395.4,395.7c3,1.7,6.8,0.7,8.5-2.3c1.7-3,0.7-6.8-2.3-8.5c-3-1.7-6.8-0.7-8.5,2.3
	C391.4,390.1,392.4,393.9,395.4,395.7"/>
<path class="st18" d="M418.2,356.2c-1.7-1-3.9-0.4-4.9,1.3c-1,1.7-0.4,4,1.3,5c1.7,1,4,0.4,5-1.3
	C420.5,359.4,419.9,357.2,418.2,356.2"/>
<path class="st19" d="M293.7,439.1c-4.8,4.8-4.9,12.7,0,17.6c4.9,4.9,12.7,4.9,17.6,0c4.9-4.9,4.9-12.7,0-17.6
	C306.4,434.2,298.5,434.2,293.7,439.1"/>
<path class="st19" d="M339.1,401c-2.8,2.8-2.8,7.4,0,10.2c2.8,2.8,7.4,2.8,10.2,0c2.8-2.8,2.8-7.4,0-10.3
	C346.5,398.2,341.9,398.2,339.1,401"/>
<path class="st19" d="M372.8,369.5c-2.2,2.2-2.2,5.8,0,8c2.2,2.2,5.8,2.2,8.1,0c2.2-2.2,2.2-5.8,0-8.1
	C378.6,367.3,375,367.3,372.8,369.5"/>
<path class="st19" d="M404.2,346.1c-1.2-1.2-3.2-1.2-4.4,0c-1.2,1.2-1.2,3.2,0,4.4c1.2,1.2,3.2,1.2,4.4,0
	C405.5,349.2,405.5,347.3,404.2,346.1"/>
<path class="st20" d="M263.4,394.4c-5.4,3.2-7.3,10.1-4.2,15.6c3.1,5.4,10.1,7.3,15.6,4.2c5.4-3.2,7.3-10.1,4.2-15.6
	C275.8,393.1,268.9,391.3,263.4,394.4"/>
<path class="st20" d="M317.1,369.4c-3,1.7-4,5.5-2.3,8.5c1.7,3,5.5,4,8.5,2.3c3-1.7,4-5.5,2.3-8.5
	C323.9,368.7,320.1,367.7,317.1,369.4"/>
<path class="st20" d="M357.5,347.2c-2.5,1.4-3.3,4.6-1.9,7.1c1.4,2.5,4.6,3.3,7.1,1.9c2.5-1.4,3.3-4.6,1.9-7.1
	C363.2,346.6,360,345.8,357.5,347.2"/>
<path class="st21" d="M240.2,263.5h18.4v70.3h-18.4V263.5z M251.4,232c-5.6-1.5-11.4,1.8-13,7.5c-1.5,5.6,1.8,11.4,7.5,13
	c5.6,1.5,11.4-1.8,13-7.5C260.4,239.3,257.1,233.5,251.4,232 M315,335.2c-4.8,0-9.1-0.8-12.9-2.5c-3.8-1.7-6.9-4.2-9.3-7.5v43.7H275
	V263.5h17.7v9.8c2.4-3.5,5.4-6.2,9.3-8.2c3.8-2,8.1-3,12.9-3c4.4,0,8.7,0.9,12.8,2.5c4.1,1.7,7.7,4.1,10.8,7.4
	c3.1,3.2,5.6,7.1,7.5,11.6c1.9,4.5,2.8,9.6,2.8,15.1c0,5.6-1,10.7-2.9,15.2c-1.9,4.5-4.4,8.3-7.6,11.5c-3.1,3.2-6.7,5.7-10.7,7.4
	C323.5,334.4,319.3,335.2,315,335.2 M311.3,318.3c2.7,0,5.2-0.5,7.6-1.6c2.3-1,4.4-2.5,6.2-4.2c1.8-1.8,3.2-3.9,4.2-6.3
	c1-2.4,1.5-5,1.5-7.7c0-2.8-0.5-5.4-1.5-7.7c-1-2.4-2.4-4.5-4.2-6.3c-1.8-1.8-3.8-3.2-6.2-4.2c-2.3-1-4.9-1.6-7.6-1.6
	c-2.8,0-5.4,0.5-7.7,1.6c-2.4,1-4.4,2.5-6.2,4.2c-1.7,1.8-3.1,3.9-4.1,6.3c-1,2.4-1.5,5-1.5,7.7c0,2.8,0.5,5.4,1.5,7.7
	c1,2.4,2.4,4.5,4.1,6.3c1.7,1.8,3.8,3.2,6.2,4.2C306,317.8,308.5,318.3,311.3,318.3 M361.6,263.5h17.7v10.8c1.7-4.2,4.3-7.2,7.6-9.2
	c3.3-1.9,7.3-2.9,11.8-2.9c2.3,0,4.5,0.3,6.6,0.8c2,0.5,3.8,1.2,5.3,2l-6.5,17.7c-1-0.7-2.3-1.3-3.9-1.8c-1.7-0.5-3.5-0.7-5.5-0.7
	c-4.6,0-8.3,1.3-11.1,3.8c-2.8,2.6-4.2,6.8-4.2,12.7v37.1h-17.8V263.5z M450.4,335.2c-5.3,0-10.2-1-14.7-2.9
	c-4.5-1.9-8.4-4.5-11.8-7.9c-3.3-3.3-5.9-7.2-7.8-11.7c-1.9-4.4-2.8-9.2-2.8-14.2c0-5,0.9-9.8,2.8-14.3c1.9-4.5,4.5-8.3,7.8-11.7
	c3.3-3.3,7.3-5.9,11.8-7.8c4.5-1.9,9.4-2.9,14.7-2.9c5.2,0,10.1,1,14.7,2.9c4.6,1.9,8.5,4.5,11.9,7.8c3.3,3.3,6,7.2,7.9,11.7
	c1.9,4.5,2.9,9.2,2.9,14.3c0,5-1,9.8-2.9,14.2c-1.9,4.4-4.5,8.3-7.8,11.7c-3.3,3.3-7.2,6-11.8,7.9
	C460.6,334.3,455.7,335.2,450.4,335.2 M450.5,318.2c2.7,0,5.2-0.5,7.5-1.6c2.3-1,4.4-2.4,6.1-4.2c1.7-1.7,3.1-3.8,4.1-6.2
	c1-2.4,1.5-5,1.5-7.7c0-2.7-0.5-5.2-1.5-7.7c-1-2.4-2.4-4.5-4.1-6.3c-1.7-1.7-3.8-3.1-6.1-4.2c-2.4-1-4.9-1.6-7.6-1.6
	c-2.7,0-5.2,0.5-7.6,1.6c-2.3,1-4.4,2.4-6.1,4.2c-1.7,1.7-3.1,3.8-4.1,6.3c-1,2.4-1.5,5-1.5,7.7c0,2.8,0.5,5.4,1.5,7.7
	c1,2.4,2.4,4.4,4.1,6.2c1.7,1.7,3.8,3.1,6.1,4.2C445.3,317.6,447.8,318.2,450.5,318.2 M113.3,263.4h18.2l14.2,44.9l16.7-44.9h16
	l16.4,44.9l14.7-44.9h18.2l-23.8,70.2h-16.9l-16.8-45.8l-16.9,45.8H136L113.3,263.4z"/>
</svg>
